<svg id="Layer_1" data-name="Layer 1" xmlns="http://www.w3.org/2000/svg" viewBox="0 0 193.13 61.8"><defs><style>.cls-1{fill:#edad30;}.cls-2{fill:#fff;}</style></defs><path class="cls-1" d="M3.69,57.27c0,.53.05,2.06,2.24,2.06.31,0,2,0,2-1.51,0-.62-.26-1-1.14-1.28l-3.24-.85c-.92-.24-3.29-.86-3.29-3.63,0-2.15,1.61-4.15,5.58-4.15,5.17,0,5.4,2.81,5.41,4.22H7.49A1.6,1.6,0,0,0,5.74,50.3C4.68,50.3,4,50.9,4,51.69c0,1,.81,1.21,1.34,1.36l2.48.64c1.76.46,3.85,1,3.85,3.82s-2.53,4.28-5.85,4.28c-1.38,0-3.6-.22-4.81-1.58a4.37,4.37,0,0,1-1-2.94Z"/><path class="cls-1" d="M14.1,48.24h6.09a6.38,6.38,0,0,1,3.45.68,4,4,0,0,1,1.87,3.6,3.91,3.91,0,0,1-2,3.61,7.52,7.52,0,0,1-3.34.57l-2.38,0v4.77H14.1Zm3.69,5.95h1.63c.9,0,2.35,0,2.35-1.78,0-1.62-1.3-1.71-2.37-1.71H17.79Z"/><path class="cls-1" d="M29.92,48.24H34.4l5.23,13.25H35.48l-.91-2.66H29.26l-.9,2.66H24.69Zm3.8,8.15L32,50.83H32l-1.84,5.56Z"/><path class="cls-1" d="M49,52.41a2,2,0,0,0-2.15-1.84c-2.22,0-2.89,2-2.89,4.46,0,.81,0,4.15,2.86,4.15a2,2,0,0,0,2.22-1.93h3.82c0,4.15-4.24,4.5-6,4.5a7,7,0,0,1-5-1.76,7.3,7.3,0,0,1-1.7-5,7.43,7.43,0,0,1,1.67-5.05,6.19,6.19,0,0,1,5-1.94c2.15,0,3.79.51,4.83,1.61a4,4,0,0,1,1.1,2.83Z"/><path class="cls-1" d="M55.2,48.28h10v2.53H58.84v2.75h5.94V56.1H58.84v2.82H65.3v2.57H55.2Z"/><path class="cls-1" d="M78.32,50.87h-4V48.24H86.15v2.63H82V61.49h-3.7Z"/><path class="cls-1" d="M87.88,48.28h10v2.53H91.52v2.75h5.94V56.1H91.52v2.82H98v2.57H87.88Z"/><path class="cls-1" d="M100.37,48.24h3.72V58.89h6v2.6h-9.67Z"/><path class="cls-1" d="M111.89,48.28h10v2.53h-6.31v2.75h5.94V56.1h-5.94v2.82H122v2.57h-10.1Z"/><path class="cls-1" d="M127.61,57.27c0,.53,0,2.06,2.24,2.06.31,0,2,0,2-1.51,0-.62-.26-1-1.14-1.28l-3.24-.85c-.92-.24-3.29-.86-3.29-3.63,0-2.15,1.62-4.15,5.58-4.15,5.18,0,5.4,2.81,5.41,4.22h-3.72a1.6,1.6,0,0,0-1.74-1.83c-1.07,0-1.75.6-1.75,1.39,0,1,.81,1.21,1.34,1.36l2.48.64c1.76.46,3.85,1,3.85,3.82s-2.53,4.28-5.85,4.28c-1.38,0-3.6-.22-4.81-1.58a4.37,4.37,0,0,1-1-2.94Z"/><path class="cls-1" d="M146.33,52.41a2,2,0,0,0-2.15-1.84c-2.22,0-2.9,2-2.9,4.46,0,.81,0,4.15,2.87,4.15a2,2,0,0,0,2.22-1.93h3.82c0,4.15-4.24,4.5-6,4.5a7,7,0,0,1-5-1.76,7.3,7.3,0,0,1-1.7-5,7.43,7.43,0,0,1,1.67-5.05,6.19,6.19,0,0,1,5-1.94c2.15,0,3.79.51,4.83,1.61a4,4,0,0,1,1.1,2.83Z"/><path class="cls-1" d="M153.42,49.71a7.46,7.46,0,0,1,5.18-1.84c5.28,0,6.71,3.8,6.71,7,0,5.29-3.74,6.9-6.9,6.9-3.52,0-6.81-1.94-6.81-6.88A7.77,7.77,0,0,1,153.42,49.71Zm5,9.4c2.62,0,3.06-2.43,3.06-4.26a5.57,5.57,0,0,0-.84-3.36,2.6,2.6,0,0,0-2.2-1c-2.42,0-3.08,2.09-3.08,4.36S156,59.11,158.45,59.11Z"/><path class="cls-1" d="M167.78,48.24h6.09a6.38,6.38,0,0,1,3.45.68,4,4,0,0,1,1.87,3.6,3.91,3.91,0,0,1-2,3.61,7.55,7.55,0,0,1-3.34.57l-2.38,0v4.77h-3.69Zm3.69,5.95h1.63c.9,0,2.35,0,2.35-1.78,0-1.62-1.3-1.71-2.37-1.71h-1.61Z"/><path class="cls-1" d="M181.24,48.28h9.94v2.53h-6.31v2.75h5.94V56.1h-5.94v2.82h6.46v2.57H181.24Z"/><path class="cls-2" d="M51.57,0H44a1.37,1.37,0,0,0-1,.41,1.39,1.39,0,0,0-.43,1v26H39.83a1.78,1.78,0,0,1-1.58-.92S28.81,10.39,27.58,8.42a.84.84,0,0,0-1.44.05s-3.54,6.7-4.83,8.91c-2.22,3.83-5.27,9-5.27,9a2.08,2.08,0,0,1-1.69,1.09H11.58v-26a1.39,1.39,0,0,0-.42-1,1.42,1.42,0,0,0-1-.42H2.61a1.41,1.41,0,0,0-1,.41,1.39,1.39,0,0,0-.43,1v34a1.42,1.42,0,0,0,1.45,1.45H15.14a10.78,10.78,0,0,0,5.23-1.26,10,10,0,0,0,3.87-3.89l2.85-6.08L30,31.82a10,10,0,0,0,4.82,4.3,10.34,10.34,0,0,0,4,.77H51.57a1.45,1.45,0,0,0,1-.42,1.43,1.43,0,0,0,.42-1v-34a1.39,1.39,0,0,0-.42-1A1.45,1.45,0,0,0,51.57,0Z"/><polygon class="cls-2" points="70.56 22.13 94.58 22.13 94.58 14.58 70.56 14.58 70.56 8.74 96.96 8.74 96.96 0.28 59.38 0.28 59.38 36.72 96.94 36.72 96.94 27.96 70.56 27.96 70.56 22.13"/><path class="cls-2" d="M138.79,18.35V18.2c3.12-.91,5.39-2.11,5.39-8.35,0-7.15-4.33-9.56-13.24-9.56H103.09V36.72h31.27c6.39,0,11.12-1.66,11.12-9.66C145.48,21.57,143.67,19,138.79,18.35ZM114.26,9h15.47c2.07,0,3.27.76,3.27,2.87s-1.2,2.82-3.27,2.82H114.26ZM130,28H114.26V22.28H130c2.42,0,4,.55,4,3C134,27.41,132.4,28,130,28Z"/><path class="cls-2" d="M186.44,18.35V18.2c3.12-.91,5.38-2.11,5.38-8.35,0-7.15-4.32-9.56-13.23-9.56H150.74V36.72H182c6.39,0,11.12-1.66,11.12-9.66C193.13,21.57,191.32,19,186.44,18.35ZM161.91,9h15.47c2.06,0,3.27.76,3.27,2.87s-1.21,2.82-3.27,2.82H161.91ZM177.63,28H161.91V22.28h15.72c2.42,0,4,.55,4,3C181.66,27.41,180.05,28,177.63,28Z"/></svg>